<?xml version="1.0" encoding="UTF-8" standalone="no"?>
<!DOCTYPE svg PUBLIC "-//W3C//DTD SVG 1.1//EN" "http://www.w3.org/Graphics/SVG/1.1/DTD/svg11.dtd">
<svg width="100%" height="100%" viewBox="0 0 4335 4335" version="1.1" xmlns="http://www.w3.org/2000/svg" xmlns:xlink="http://www.w3.org/1999/xlink" xml:space="preserve" xmlns:serif="http://www.serif.com/" style="fill-rule:evenodd;clip-rule:evenodd;stroke-linejoin:round;stroke-miterlimit:2;">
    <g transform="matrix(1,0,0,1,0,-8427.76)">
        <g id="Artboard1" transform="matrix(2.25752,0,0,2.25752,0,8427.76)">
            <rect x="0" y="0" width="1920" height="1920" style="fill:none;"/>
            <g transform="matrix(1.23061,0,0,1.23061,-10057.7,359.665)">
                <g id="Layer-1" serif:id="Layer 1">
                    <g>
                        <g transform="matrix(1.29821,0,0,1.29821,8836.24,556.936)">
                            <path d="M0,-106.608L0,-95.338L-61.238,-95.338L-61.238,-59.547L-6.511,-59.547L-6.511,-48.43L-61.238,-48.43L-61.238,-11.27L2.015,-11.27L2.015,0L-73.641,0L-73.641,-106.608L0,-106.608Z" style="fill:rgb(201,139,57);fill-rule:nonzero;"/>
                        </g>
                        <g transform="matrix(1.29821,0,0,1.29821,8961.22,556.936)">
                            <path d="M0,-106.608L0,-95.338L-56.587,-95.338L-56.587,-57.111L-5.891,-57.111L-5.891,-45.994L-56.587,-45.994L-56.587,0L-68.99,0L-68.99,-106.608L0,-106.608Z" style="fill:rgb(201,139,57);fill-rule:nonzero;"/>
                        </g>
                        <g transform="matrix(1.29821,0,0,1.29821,9074.52,556.936)">
                            <path d="M0,-106.608L0,-95.338L-56.587,-95.338L-56.587,-57.111L-5.891,-57.111L-5.891,-45.994L-56.587,-45.994L-56.587,0L-68.99,0L-68.99,-106.608L0,-106.608Z" style="fill:rgb(201,139,57);fill-rule:nonzero;"/>
                        </g>
                        <g transform="matrix(1.29821,0,0,1.29821,9175.76,468.558)">
                            <path d="M0,29.545L-24.65,-25.282L-48.99,29.545L0,29.545ZM4.961,40.815L-54.106,40.815L-66.199,68.077L-79.377,68.077L-30.697,-38.532L-17.829,-38.532L30.697,68.077L17.209,68.077L4.961,40.815Z" style="fill:rgb(201,139,57);fill-rule:nonzero;"/>
                        </g>
                        <g transform="matrix(1.29821,0,0,1.29821,9291.28,477.059)">
                            <path d="M0,16.449C19.689,16.449 30.852,7.767 30.852,-8.985C30.852,-25.28 19.689,-33.809 0,-33.809L-28.836,-33.809L-28.836,16.449L0,16.449ZM29.766,61.529L6.977,27.414C4.806,27.567 2.48,27.719 0,27.719L-28.836,27.719L-28.836,61.529L-41.24,61.529L-41.24,-45.08L0,-45.08C27.131,-45.08 42.789,-31.982 42.789,-9.289C42.789,8.225 33.953,20.256 18.293,25.129L43.875,61.529L29.766,61.529Z" style="fill:rgb(201,139,57);fill-rule:nonzero;"/>
                        </g>
                        <g transform="matrix(1.29821,0,0,1.29821,9386.27,487.933)">
                            <path d="M0,-0.151C0,23.455 20.155,42.491 44.339,42.491C68.525,42.491 88.369,23.455 88.369,-0.151C88.369,-23.758 68.525,-42.491 44.339,-42.491C20.155,-42.491 0,-23.758 0,-0.151M101.082,-0.151C101.082,29.85 75.967,53.609 44.339,53.609C12.557,53.609 -12.557,29.85 -12.557,-0.151C-12.557,-30.154 12.557,-53.76 44.339,-53.76C75.967,-53.76 101.082,-30.154 101.082,-0.151" style="fill:rgb(201,139,57);fill-rule:nonzero;"/>
                        </g>
                        <g transform="matrix(0.874859,0,0,0.874859,7707.87,-244.521)">
                            <g transform="matrix(-1,0,0,1,1716.47,-392.513)">
                                <rect x="648.244" y="1123.02" width="183.522" height="18.463" style="fill:rgb(201,139,57);"/>
                            </g>
                            <g transform="matrix(-1,0,0,1,1609.89,-197.759)">
                                <rect x="541.664" y="1025.64" width="290.102" height="18.463" style="fill:rgb(201,139,57);"/>
                            </g>
                            <g transform="matrix(-1,0,0,1,1719.1,-3.0046)">
                                <rect x="650.873" y="928.264" width="180.893" height="18.463" style="fill:rgb(201,139,57);"/>
                            </g>
                            <g transform="matrix(-1,0,0,1,1565.69,-100.383)">
                                <rect x="594.94" y="976.953" width="139.355" height="18.463" style="fill:rgb(201,139,57);"/>
                            </g>
                            <g transform="matrix(-1,0,0,1,1565.69,-295.135)">
                                <rect x="594.94" y="1074.33" width="139.355" height="18.463" style="fill:rgb(201,139,57);"/>
                            </g>
                        </g>
                    </g>
                </g>
            </g>
        </g>
    </g>
</svg>
