<svg width="207" height="59" viewBox="0 0 207 59" fill="none" xmlns="http://www.w3.org/2000/svg">
<path d="M21.2743 10.2607H57.3618V13.8913H21.2743V10.2607Z" fill="#C98B39"/>
<path d="M0.316578 29.4102H57.3618V33.0407H0.316578V29.4102Z" fill="#C98B39"/>
<path d="M21.7913 48.5547H57.3618V52.1852H21.7913V48.5547Z" fill="#C98B39"/>
<path d="M10.792 38.9805H38.1946V42.611H10.792V38.9805Z" fill="#C98B39"/>
<path d="M10.792 19.835H38.1946V23.4655H10.792V19.835Z" fill="#C98B39"/>
<path d="M85.6116 5.92578V8.51566H71.539V16.7405H84.1154V19.2952H71.539V27.8347H86.0747V30.4246H68.6887V5.92578H85.6116Z" fill="#C98B39"/>
<path d="M107.735 5.92578V8.51566H94.7311V17.3003H106.381V19.855H94.7311V30.4246H91.8809V5.92578H107.735Z" fill="#C98B39"/>
<path d="M127.791 5.92578V8.51566H114.787V17.3003H126.437V19.855H114.787V30.4246H111.937V5.92578H127.791Z" fill="#C98B39"/>
<path d="M145.712 21.5701L140.047 8.97067L134.454 21.5701H145.712ZM146.852 24.1599H133.278L130.499 30.4248H127.471L138.658 5.92578H141.615L152.766 30.4248H149.666L146.852 24.1599Z" fill="#C98B39"/>
<path d="M166.161 20.0653C170.685 20.0653 173.251 18.0702 173.251 14.2205C173.251 10.4759 170.685 8.51589 166.161 8.51589H159.534V20.0653H166.161ZM173.001 30.4248L167.764 22.5851C167.265 22.6203 166.731 22.6552 166.161 22.6552H159.534V30.4248H156.684V5.92578H166.161C172.395 5.92578 175.994 8.93574 175.994 14.1507C175.994 18.1754 173.963 20.9402 170.364 22.06L176.243 30.4248H173.001Z" fill="#C98B39"/>
<path d="M182.975 18.1759C182.975 23.6007 187.607 27.9752 193.164 27.9752C198.722 27.9752 203.283 23.6007 203.283 18.1759C203.283 12.751 198.722 8.44609 193.164 8.44609C187.607 8.44609 182.975 12.751 182.975 18.1759ZM206.204 18.1759C206.204 25.0703 200.433 30.5301 193.164 30.5301C185.861 30.5301 180.09 25.0703 180.09 18.1759C180.09 11.2812 185.861 5.85645 193.164 5.85645C200.433 5.85645 206.204 11.2812 206.204 18.1759Z" fill="#C98B39"/>
<path d="M199.327 0.577386V0H202.046V0.577386H199.327ZM200.349 3.36971V0.293218H201.023V3.36971H200.349ZM202.629 3.36971V0H203.303V3.36971H202.629ZM204.236 3.36971L202.798 0H203.45L204.427 2.39024L205.393 0H206.044L204.606 3.36971H204.236ZM205.539 3.36971V0H206.213V3.36971H205.539Z" fill="#C98B39"/>
<path d="M74.5604 54.4785V48.4079L69.3714 40.1536H71.3749L75.482 46.9654H75.5221L79.6894 40.1536H81.6127L76.3636 48.448V54.4785H74.5604ZM88.6575 53.1963C87.7492 54.2381 86.5405 54.759 85.0312 54.759C83.5219 54.759 82.3064 54.2381 81.3848 53.1963C80.4766 52.1545 80.0224 50.8589 80.0224 49.3095C80.0224 47.7601 80.4766 46.4646 81.3848 45.4227C82.3064 44.3809 83.5219 43.86 85.0312 43.86C86.5405 43.86 87.7492 44.3809 88.6575 45.4227C89.5657 46.4646 90.0199 47.7601 90.0199 49.3095C90.0199 50.8589 89.5657 52.1545 88.6575 53.1963ZM82.5468 52.2546C83.1345 53.016 83.9626 53.3966 85.0312 53.3966C86.0997 53.3966 86.9211 53.016 87.4955 52.2546C88.0698 51.48 88.357 50.4982 88.357 49.3095C88.357 48.1074 88.0631 47.1257 87.4754 46.3644C86.9011 45.5897 86.0863 45.2024 85.0312 45.2024C83.9626 45.2024 83.1345 45.5897 82.5468 46.3644C81.9725 47.1391 81.6853 48.1208 81.6853 49.3095C81.6853 50.4982 81.9725 51.48 82.5468 52.2546ZM99.8526 54.4785H98.2298V53.056H98.1897C97.375 54.1646 96.3331 54.7189 95.0643 54.7189C93.9957 54.7189 93.1476 54.4184 92.5198 53.8174C91.8921 53.203 91.5782 52.3615 91.5782 51.293V44.1205H93.201V51.2529C93.201 51.9207 93.4014 52.4416 93.8021 52.8156C94.2161 53.1896 94.7905 53.3766 95.5251 53.3766C96.3398 53.3766 96.9943 53.1028 97.4885 52.5552C97.9827 52.0075 98.2298 51.3197 98.2298 50.4916V44.1205H99.8526V54.4785ZM105.477 54.4785V40.1536H111.547C113.057 40.1536 114.205 40.5676 114.993 41.3957C115.608 42.0368 115.915 42.8516 115.915 43.84C115.915 45.3626 115.147 46.3644 113.611 46.8452V46.9053C114.466 47.1057 115.16 47.5064 115.694 48.1074C116.229 48.6951 116.496 49.4498 116.496 50.3714C116.496 51.4666 116.149 52.3815 115.454 53.1161C114.613 54.0244 113.417 54.4785 111.868 54.4785H105.477ZM107.28 52.8557H111.788C112.776 52.8557 113.524 52.6153 114.032 52.1344C114.459 51.6803 114.673 51.126 114.673 50.4715C114.673 49.6034 114.399 48.9422 113.851 48.4881C113.304 48.034 112.576 47.8069 111.667 47.8069H107.28V52.8557ZM107.28 46.2842H111.327C112.195 46.2842 112.876 46.0772 113.37 45.6632C113.865 45.2491 114.112 44.6748 114.112 43.9402C114.112 43.2456 113.885 42.7047 113.43 42.3173C112.99 41.9166 112.369 41.7163 111.567 41.7163H107.28V46.2842ZM122.557 54.759C121.021 54.759 119.799 54.2448 118.891 53.2163C117.996 52.1745 117.549 50.8722 117.549 49.3095C117.549 47.7735 118.003 46.4846 118.911 45.4428C119.833 44.3876 121.015 43.86 122.457 43.86C123.98 43.86 125.155 44.3943 125.983 45.4628C126.812 46.518 127.226 47.9271 127.226 49.6902H119.212C119.278 50.7854 119.599 51.6803 120.173 52.3749C120.761 53.056 121.556 53.3966 122.557 53.3966C124.107 53.3966 125.062 52.6887 125.422 51.2729H127.005C126.765 52.3815 126.257 53.243 125.483 53.8574C124.708 54.4585 123.733 54.759 122.557 54.759ZM124.621 46.0238C124.1 45.4361 123.379 45.1422 122.457 45.1422C121.536 45.1422 120.801 45.4494 120.253 46.0639C119.719 46.6783 119.385 47.4797 119.252 48.468H125.483C125.429 47.4262 125.142 46.6115 124.621 46.0238ZM128.873 54.4785V40.1536H130.495V54.4785H128.873ZM140.819 53.1963C139.91 54.2381 138.702 54.759 137.192 54.759C135.683 54.759 134.468 54.2381 133.546 53.1963C132.638 52.1545 132.184 50.8589 132.184 49.3095C132.184 47.7601 132.638 46.4646 133.546 45.4227C134.468 44.3809 135.683 43.86 137.192 43.86C138.702 43.86 139.91 44.3809 140.819 45.4227C141.727 46.4646 142.181 47.7601 142.181 49.3095C142.181 50.8589 141.727 52.1545 140.819 53.1963ZM134.708 52.2546C135.296 53.016 136.124 53.3966 137.192 53.3966C138.261 53.3966 139.082 53.016 139.657 52.2546C140.231 51.48 140.518 50.4982 140.518 49.3095C140.518 48.1074 140.224 47.1257 139.637 46.3644C139.062 45.5897 138.248 45.2024 137.192 45.2024C136.124 45.2024 135.296 45.5897 134.708 46.3644C134.134 47.1391 133.847 48.1208 133.847 49.3095C133.847 50.4982 134.134 51.48 134.708 52.2546ZM145.422 44.1205V45.4828H145.462C146.264 44.4143 147.359 43.88 148.748 43.88C149.843 43.88 150.698 44.1672 151.313 44.7415C151.927 45.3159 152.234 46.1373 152.234 47.2058V54.4785H150.611V47.3461C150.611 46.6783 150.404 46.164 149.99 45.8034C149.576 45.4294 149.002 45.2424 148.267 45.2424C147.439 45.2424 146.758 45.5096 146.224 46.0438C145.689 46.5781 145.422 47.2659 145.422 48.1074V54.4785H143.799V44.1205H145.422ZM158.512 57.9245C157.189 57.9245 156.147 57.6707 155.386 57.1632C154.638 56.669 154.217 55.9678 154.124 55.0595H155.627C155.773 56.1147 156.722 56.6423 158.471 56.6423C160.448 56.6423 161.437 55.7541 161.437 53.9776V52.5151H161.397C160.983 53.0494 160.542 53.4501 160.074 53.7172C159.607 53.9843 159.026 54.1179 158.331 54.1179C156.996 54.1179 155.907 53.637 155.066 52.6754C154.224 51.7137 153.803 50.4849 153.803 48.989C153.803 47.4262 154.224 46.1841 155.066 45.2625C155.92 44.3409 156.976 43.88 158.231 43.88C159.593 43.88 160.649 44.401 161.397 45.4428H161.437V44.1205H163.059V53.9175C163.059 55.2398 162.652 56.2349 161.837 56.9027C161.036 57.5839 159.927 57.9245 158.512 57.9245ZM158.411 52.7555C160.508 52.7555 161.557 51.4733 161.557 48.9088C161.557 46.4646 160.502 45.2424 158.391 45.2424C157.443 45.2424 156.715 45.583 156.208 46.2642C155.713 46.9454 155.466 47.8603 155.466 49.009C155.466 50.1577 155.72 51.0726 156.228 51.7538C156.735 52.4216 157.463 52.7555 158.411 52.7555ZM170.075 40.1536V45.4828H170.115C170.916 44.4143 172.011 43.88 173.4 43.88C174.496 43.88 175.351 44.1672 175.965 44.7415C176.579 45.3159 176.887 46.1373 176.887 47.2058V54.4785H175.264V47.3461C175.264 46.6783 175.057 46.164 174.643 45.8034C174.229 45.4294 173.654 45.2424 172.92 45.2424C172.092 45.2424 171.41 45.5096 170.876 46.0438C170.342 46.5781 170.075 47.2659 170.075 48.1074V54.4785H168.452V40.1536H170.075ZM183.464 54.759C181.928 54.759 180.706 54.2448 179.798 53.2163C178.903 52.1745 178.456 50.8722 178.456 49.3095C178.456 47.7735 178.91 46.4846 179.818 45.4428C180.74 44.3876 181.922 43.86 183.364 43.86C184.887 43.86 186.062 44.3943 186.89 45.4628C187.718 46.518 188.133 47.9271 188.133 49.6902H180.119C180.185 50.7854 180.506 51.6803 181.08 52.3749C181.668 53.056 182.463 53.3966 183.464 53.3966C185.014 53.3966 185.969 52.6887 186.329 51.2729H187.912C187.672 52.3815 187.164 53.243 186.389 53.8574C185.615 54.4585 184.64 54.759 183.464 54.759ZM185.528 46.0238C185.007 45.4361 184.286 45.1422 183.364 45.1422C182.443 45.1422 181.708 45.4494 181.16 46.0639C180.626 46.6783 180.292 47.4797 180.159 48.468H186.389C186.336 47.4262 186.049 46.6115 185.528 46.0238ZM191.342 44.1205V45.8435H191.382C191.716 45.2958 192.15 44.8551 192.685 44.5212C193.219 44.1739 193.813 44.0003 194.468 44.0003C194.708 44.0003 194.928 44.0403 195.129 44.1205V45.6832H195.069C194.868 45.6164 194.628 45.583 194.347 45.583C193.519 45.583 192.811 45.8769 192.224 46.4646C191.636 47.0389 191.342 47.7935 191.342 48.7285V54.4785H189.719V44.1205H191.342ZM200.623 54.759C199.087 54.759 197.865 54.2448 196.957 53.2163C196.062 52.1745 195.614 50.8722 195.614 49.3095C195.614 47.7735 196.069 46.4846 196.977 45.4428C197.898 44.3876 199.081 43.86 200.523 43.86C202.046 43.86 203.221 44.3943 204.049 45.4628C204.877 46.518 205.291 47.9271 205.291 49.6902H197.277C197.344 50.7854 197.665 51.6803 198.239 52.3749C198.827 53.056 199.621 53.3966 200.623 53.3966C202.173 53.3966 203.128 52.6887 203.488 51.2729H205.071C204.831 52.3815 204.323 53.243 203.548 53.8574C202.774 54.4585 201.799 54.759 200.623 54.759ZM202.687 46.0238C202.166 45.4361 201.445 45.1422 200.523 45.1422C199.601 45.1422 198.867 45.4494 198.319 46.0639C197.785 46.6783 197.451 47.4797 197.317 48.468H203.548C203.495 47.4262 203.208 46.6115 202.687 46.0238Z" fill="#C98B39"/>
</svg>
