<svg width="19" height="19" viewBox="0 0 19 19" fill="none" xmlns="http://www.w3.org/2000/svg">
<g clip-path="url(#clip0_2007_138)">
<path d="M5.64727 1.90422C5.74183 1.79137 5.78837 1.64594 5.7769 1.49916C5.76543 1.35237 5.69687 1.21593 5.58593 1.11913C5.475 1.02233 5.33053 0.972889 5.18354 0.981413C5.03656 0.989937 4.89877 1.05575 4.79977 1.16472L3.83077 2.27472C3.28131 2.9044 2.9707 3.7072 2.95327 4.54272L2.91052 6.58197C2.90744 6.73116 2.96374 6.87546 3.06705 6.98313C3.17036 7.0908 3.31221 7.15302 3.4614 7.1561C3.61058 7.15918 3.75488 7.10288 3.86255 6.99957C3.97022 6.89626 4.03244 6.75441 4.03552 6.60522L4.07752 4.56672C4.08955 3.99502 4.3022 3.44574 4.67827 3.01497L5.64727 1.90422Z" fill="#C0904B"/>
<path fill-rule="evenodd" clip-rule="evenodd" d="M5.5034 5.86973C5.55376 5.06733 5.90804 4.31429 6.49409 3.7639C7.08014 3.21352 7.85392 2.90717 8.6579 2.90723H9.07565V2.34473C9.07565 2.14581 9.15466 1.95505 9.29532 1.8144C9.43597 1.67374 9.62673 1.59473 9.82565 1.59473C10.0246 1.59473 10.2153 1.67374 10.356 1.8144C10.4966 1.95505 10.5756 2.14581 10.5756 2.34473V2.90723H10.9934C11.7974 2.90717 12.5712 3.21352 13.1572 3.7639C13.7433 4.31429 14.0975 5.06733 14.1479 5.86973L14.3136 8.52023C14.3777 9.53064 14.717 10.5043 15.2946 11.3357C15.4142 11.5075 15.4872 11.7073 15.5066 11.9157C15.5261 12.1241 15.4913 12.334 15.4056 12.5249C15.3199 12.7158 15.1862 12.8813 15.0176 13.0053C14.849 13.1293 14.6512 13.2076 14.4434 13.2325L11.8881 13.5385V14.3447C11.8881 14.8917 11.6708 15.4163 11.2841 15.8031C10.8973 16.1899 10.3727 16.4072 9.82565 16.4072C9.27864 16.4072 8.75403 16.1899 8.36724 15.8031C7.98044 15.4163 7.76315 14.8917 7.76315 14.3447V13.5385L5.2079 13.2317C5.00022 13.2068 4.80253 13.1285 4.63403 13.0046C4.46553 12.8806 4.33196 12.7152 4.24628 12.5244C4.16061 12.3335 4.12575 12.1238 4.14509 11.9155C4.16442 11.7073 4.2373 11.5075 4.35665 11.3357C4.93433 10.5043 5.27357 9.53064 5.33765 8.52023L5.5034 5.86973ZM8.88815 14.3447C8.88815 14.5934 8.98692 14.8318 9.16273 15.0076C9.33855 15.1835 9.57701 15.2822 9.82565 15.2822C10.0743 15.2822 10.3127 15.1835 10.4886 15.0076C10.6644 14.8318 10.7631 14.5934 10.7631 14.3447V13.7822H8.88815V14.3447Z" fill="#C0904B"/>
<path d="M14.0578 1.11027C13.9455 1.20835 13.8767 1.34704 13.8665 1.49584C13.8564 1.64464 13.9058 1.79137 14.0038 1.90377L14.9728 3.01377C15.3488 3.44484 15.5612 3.9944 15.5728 4.56627L15.6156 6.60402C15.6171 6.67789 15.6332 6.75073 15.6628 6.8184C15.6925 6.88606 15.7352 6.94721 15.7885 6.99836C15.8419 7.04952 15.9047 7.08967 15.9736 7.11653C16.0424 7.14339 16.1158 7.15642 16.1897 7.1549C16.2636 7.15337 16.3364 7.13731 16.4041 7.10763C16.4717 7.07795 16.5329 7.03524 16.584 6.98192C16.6352 6.92861 16.6753 6.86575 16.7022 6.79692C16.7291 6.72809 16.7421 6.65464 16.7406 6.58077L16.6978 4.54227C16.6804 3.70675 16.3698 2.90395 15.8203 2.27427L14.8513 1.16427C14.7532 1.05191 14.6146 0.983105 14.4658 0.972979C14.317 0.962852 14.1702 1.01224 14.0578 1.11027Z" fill="#C0904B"/>
</g>
<defs>
<clipPath id="clip0_2007_138">
<rect width="18" height="18" fill="white" transform="translate(0.825684 0.0947266)"/>
</clipPath>
</defs>
</svg>
